HIERARCHY
ROOT Hips
{
	OFFSET	0.00	0.00	0.00
	CHANNELS 6 Xposition Yposition Zposition Zrotation Xrotation Yrotation
	JOINT Spine
	{
		OFFSET	 0.00	0.01	 0.00
		CHANNELS 3 Zrotation Xrotation Yrotation
		JOINT Spine1
		{
			OFFSET	 0.00	 2.45913012437421	 0.00
			CHANNELS 3 Zrotation Xrotation Yrotation
            JOINT Neck
            {
                OFFSET	 0.00	 2.48462964506057	 0.00
                CHANNELS 3 Zrotation Xrotation Yrotation
                JOINT Head
                {
                    OFFSET	 0.00	 0.927524780924562	 0.00
                    CHANNELS 3 Zrotation Xrotation Yrotation
                    End Site 
                    {
                        OFFSET	 0.00	 1.14999962169752	 0.00
                    }
                }
            }
			JOINT LeftShoulder
			{
				OFFSET	 0.00	 2.48462964506057	 0.00
				CHANNELS 3 Zrotation Xrotation Yrotation
				JOINT LeftUpArm
				{
					OFFSET	 0.00	 1.24881979654096	 0.00
					CHANNELS 3 Zrotation Xrotation Yrotation
					JOINT LeftForeArm
					{
						OFFSET	 0.00	2.59758046908119	 0.00
						CHANNELS 3 Zrotation Xrotation Yrotation
						JOINT LeftHand
						{
							OFFSET	 0.00	2.45542024364365	 0.00
							CHANNELS 3 Zrotation Xrotation Yrotation
							JOINT LeftHandThumb 
							{
								OFFSET	 0.00	0.00	 0.00
								CHANNELS 3 Zrotation Xrotation Yrotation
								End Site
								{
									OFFSET	 0.00	0.00	1.00000003353624
								}
							}
							JOINT L_Wrist_End 
							{
								OFFSET	 0.00	0.99999967115358	 0.00
								CHANNELS 3 Zrotation Xrotation Yrotation
								End Site 
								{
									OFFSET	 0.00	 0.00	 0.00
								}
							}
						}
					}
				}
			}
			JOINT RightShoulder
			{
				OFFSET	 0.00	 2.48462964506057	 0.00
				CHANNELS 3 Zrotation Xrotation Yrotation
				JOINT RightUpArm
				{
					OFFSET	 0.00	 1.24881979654096	 0.00
					CHANNELS 3 Zrotation Xrotation Yrotation
					JOINT RightForeArm
					{
						OFFSET	 0.00	2.59758046908119	 0.00
						CHANNELS 3 Zrotation Xrotation Yrotation
						JOINT RightHand
						{
							OFFSET	 0.00	2.45542024364365	 0.00
							CHANNELS 3 Zrotation Xrotation Yrotation
							JOINT RightHandThumb 
							{
								OFFSET	 0.00	0.00	 0.00
								CHANNELS 3 Zrotation Xrotation Yrotation
								End Site
								{
									OFFSET	 0.00	0.00	1.00000003353624
								}
							}
							JOINT R_Wrist_End 
							{
								OFFSET	 0.00	0.99999967115358	 0.00
								CHANNELS 3 Zrotation Xrotation Yrotation
								End Site 
								{
									OFFSET	 0.00	 0.00	 0.00
								}
							}
						}
					}
				}
			}
		}
	}
	JOINT LeftUpLeg
	{
		OFFSET	 1.2719394002717	 0.00	 0.00
		CHANNELS 3 Zrotation Xrotation Yrotation
		JOINT LeftLowLeg
		{
			OFFSET	 0.00	-4.3429100912261	 0.00
			CHANNELS 3 Zrotation Xrotation Yrotation
			JOINT LeftFoot
			{
				OFFSET	 0.00	-4.48767017425826	 0.00
				CHANNELS 3 Zrotation Xrotation Yrotation
				JOINT LeftToeBase
                {
                    OFFSET	 0.00	0.00	 1.51507020887566
                    CHANNELS 3 Zrotation Xrotation Yrotation
                    End Site 
                    {
                        OFFSET	 0.00	0.00	 0.75000010571191
                    }
                }
			}
		}
	}
	JOINT RightUpLeg
	{
		OFFSET	 -1.2719393604653	 0.00	 0.00
		CHANNELS 3 Zrotation Xrotation Yrotation
		JOINT RightLowLeg
		{
			OFFSET	 0.00	-4.3429100912261	 0.00
			CHANNELS 3 Zrotation Xrotation Yrotation
			JOINT RightFoot
			{
				OFFSET	 0.00	-4.48767017425826	 0.00
				CHANNELS 3 Zrotation Xrotation Yrotation
				JOINT RightToeBase
                {
                    OFFSET	 0.00	0.00	 1.51507020887566
                    CHANNELS 3 Zrotation Xrotation Yrotation
                    End Site 
                    {
                        OFFSET	 0.00	0.00	 0.749999965609858
                    }
                }   
			}
		}
	}
}
MOTION 
Frames:	13 
Frame Time: 0.02 
 2.599949951171875 5.7273797607421875 9.8102001953125 -150.539 82.7242 -565.139 3.07126 -7.26289 -2.73403 -1.06406 3.7763 -2.9088 -4.82091 26.3575 2.57994 18.8951 -52.1106 10.7876 -88.53636 -17.7567 -4.31885 -7.86408 7.54204 -31.8306 0.0 21.39 0.0 30.7753 -7.60995 19.8829 0.0 0.0 0.0 0.0 0.0 0.0 96.79136 -12.0667 1.58388 6.94152 3.29242 37.8605 0.0 21.8212 0.0 -19.7035 -3.40998 -27.1463 0.0 0.0 0.0 0.0 0.0 0.0 5.03327 -4.38531 -0.0603286 0.0 6.42228 0.0 -6.10325 6.9005604 -1.05145 0.0 -20.185051 0.0 2.31712 -2.92103 7.89455 0.0 6.3198 0.0 8.72153 9.50897 -5.87255 0.0 -28.0924 0.0 
  2.599849853515625 5.727730102539063 9.8102197265625 -150.493 82.7367 -565.185 3.07049 -7.25309 -2.72895 -1.0591 3.78335 -2.90342 -4.80801 26.3864 2.55402 18.8893 -52.1298 10.7968 -88.54333 -17.7322 -4.32649 -7.86958 7.4969 -31.6909 0.0 21.4357 0.0 30.8072 -7.64954 19.6703 0.0 0.0 0.0 0.0 0.0 0.0 96.79849 -12.0674 1.55744 6.97342 3.2842 37.8935 0.0 21.8596 0.0 -19.7721 -3.40583 -27.1115 0.0 0.0 0.0 0.0 0.0 0.0 5.03302 -4.37077 -0.0596347 0.0 6.41731 0.0 -6.09586 6.90403 -1.04898 0.0 -20.18892 0.0 2.319 -2.91145 7.9267 0.0 6.32284 0.0 8.72981 9.50845 -5.8992 0.0 -28.098999 0.0 
  2.5997100830078126 5.727860107421875 9.810159912109375 -150.412 82.7545 -565.258 3.06784 -7.23777 -2.7382 -1.05003 3.79006 -2.91222 -4.82082 26.3944 2.56375 18.8886 -52.1254 10.7828 -88.56189 -17.7349 -4.30535 -7.88126 7.52274 -31.8375 0.0 21.4297 0.0 30.8031 -7.59345 19.7721 0.0 0.0 0.0 0.0 0.0 0.0 96.81105 -12.0527 1.56134 6.98149 3.28227 37.8729 0.0 21.8313 0.0 -19.7507 -3.27023 -27.1227 0.0 0.0 0.0 0.0 0.0 0.0 5.03579 -4.35671 -0.0566806 0.0 6.42442 0.0 -6.09911 6.8996496 -1.0616 0.0 -20.18467 0.0 2.31973 -2.88922 7.92066 0.0 6.32141 0.0 8.7559 9.49666 -5.89343 0.0 -28.0735 0.0 
  2.599219970703125 5.728350219726562 9.810059814453124 -150.354 82.7752 -565.313 3.05111 -7.22653 -2.74222 -1.02071 3.80245 -2.91249 -4.84237 26.43 2.57832 18.8779 -52.1238 10.7769 -88.56942 -17.6915 -4.30236 -7.90756 7.4459 -31.6198 0.0 21.495 0.0 30.7255 -7.61126 19.7344 0.0 0.0 0.0 0.0 0.0 0.0 96.80259 -12.0315 1.54008 7.02165 3.29883 37.7851 0.0 21.8255 0.0 -19.8127 -3.46566 -27.0892 0.0 0.0 0.0 0.0 0.0 0.0 5.03364 -4.347 -0.0863454 0.0 6.44039 0.0 -6.10277 6.8929796 -1.03389 0.0 -20.17679 0.0 2.3211 -2.87052 7.94036 0.0 6.32167 0.0 8.7339 9.49807 -5.92065 0.0 -28.0765 0.0 
  2.5990899658203124 5.728460083007812 9.81 -150.212 82.8062 -565.461 3.05703 -7.20054 -2.7354 -1.01574 3.8312 -2.9066 -4.8826 26.3946 2.62243 18.8808 -52.1053 10.734 -88.61822 -17.6678 -4.29067 -7.82522 7.42025 -31.5475 0.0 21.4995 0.0 30.5047 -7.80523 19.6993 0.0 0.0 0.0 0.0 0.0 0.0 96.79334 -12.0749 1.53266 7.07153 3.36403 37.7905 0.0 21.7988 0.0 -19.7807 -3.46357 -27.1271 0.0 0.0 0.0 0.0 0.0 0.0 5.03702 -4.30869 -0.0987837 0.0 6.43711 0.0 -6.11117 6.88939 -1.02378 0.0 -20.18254 0.0 2.32456 -2.83822 7.944 0.0 6.32738 0.0 8.7534 9.491819 -5.90763 0.0 -28.0598 0.0 
  2.598810119628906 5.728599853515625 9.809920043945313 -150.197 82.8092 -565.48 3.06418 -7.19469 -2.72862 -1.02919 3.82542 -2.90143 -4.88484 26.3947 2.62667 18.8817 -52.094 10.7246 -88.62832 -17.6619 -4.25887 -7.7919 7.44073 -31.5605 0.0 21.4642 0.0 30.5135 -7.8209 19.6876 0.0 0.0 0.0 0.0 0.0 0.0 96.79436 -12.0843 1.51535 7.09985 3.36631 37.7649 0.0 21.7983 0.0 -19.761 -3.46717 -27.1947 0.0 0.0 0.0 0.0 0.0 0.0 5.04038 -4.30297 -0.0805296 0.0 6.43201 0.0 -6.11237 6.88933 -1.03849 0.0 -20.1888 0.0 2.32648 -2.83812 7.94694 0.0 6.33102 0.0 8.74943 9.48656 -5.90575 0.0 -28.0665 0.0 
  2.598349914550781 5.7284002685546875 9.809949951171875 -150.199 82.8088 -565.484 3.0563 -7.21338 -2.72999 -1.02622 3.83982 -2.90087 -4.87557 26.4273 2.61513 18.8782 -52.1082 10.7546 -88.5981 -17.651 -4.26444 -7.8466 7.44789 -31.5652 0.0 21.407 0.0 30.7857 -7.63508 19.7613 0.0 0.0 0.0 0.0 0.0 0.0 96.81112 -12.0621 1.51826 7.1029 3.3589 37.7583 0.0 21.7813 0.0 -19.7041 -3.40494 -27.2029 0.0 0.0 0.0 0.0 0.0 0.0 5.04379 -4.2927 -0.0668662 0.0 6.41552 0.0 -6.11676 6.89557 -1.04489 0.0 -20.18554 0.0 2.32858 -2.8389 7.92751 0.0 6.32882 0.0 8.73281 9.50065 -5.89025 0.0 -28.080101 0.0 
  2.5980099487304686 5.728419799804687 9.81 -150.203 82.8026 -565.483 3.05431 -7.22225 -2.7335 -1.01695 3.83437 -2.90392 -4.90004 26.449 2.63044 18.8746 -52.1324 10.7613 -88.61168 -17.6435 -4.26499 -7.81613 7.42348 -31.4483 0.0 21.4064 0.0 30.8288 -7.59817 19.7562 0.0 0.0 0.0 0.0 0.0 0.0 96.810074 -12.0328 1.51426 7.12231 3.32449 37.7647 0.0 21.7998 0.0 -19.7625 -3.35856 -27.1562 0.0 0.0 0.0 0.0 0.0 0.0 5.04823 -4.30113 -0.0536992 0.0 6.42325 0.0 -6.11067 6.89373 -1.05035 0.0 -20.18617 0.0 2.33244 -2.83681 7.93612 0.0 6.31172 0.0 8.735 9.5147705 -5.89595 0.0 -28.0979 0.0 
  2.5974700927734373 5.72833984375 9.809979858398437 -150.226 82.7986 -565.455 3.04767 -7.23139 -2.73523 -1.01389 3.83218 -2.90423 -4.87362 26.42 2.58993 18.8108 -52.0981 10.7254 -88.60903 -17.6469 -4.27678 -7.83286 7.41879 -31.5296 0.0 21.4563 0.0 30.7711 -7.56687 19.717 0.0 0.0 0.0 0.0 0.0 0.0 96.80246 -12.0203 1.50331 7.16061 3.28633 37.8109 0.0 21.8355 0.0 -19.8111 -3.34291 -27.0981 0.0 0.0 0.0 0.0 0.0 0.0 5.05069 -4.31488 -0.0419898 0.0 6.43746 0.0 -6.11632 6.89229 -1.06796 0.0 -20.18372 0.0 2.33404 -2.8338 7.9282 0.0 6.29917 0.0 8.71911 9.518459 -5.89653 0.0 -28.097599 0.0 
  2.5971600341796877 5.72864013671875 9.809940185546875 -150.241 82.7949 -565.439 3.04202 -7.23209 -2.73403 -1.00705 3.83127 -2.90178 -4.88394 26.3989 2.59609 18.8022 -52.0951 10.7042 -88.60196 -17.6546 -4.30267 -7.8679 7.42254 -31.6504 0.0 21.4943 0.0 30.7344 -7.5626 19.7567 0.0 0.0 0.0 0.0 0.0 0.0 96.79603 -12.0013 1.49998 7.17159 3.23888 37.8198 0.0 21.8367 0.0 -19.7426 -3.35996 -27.0133 0.0 0.0 0.0 0.0 0.0 0.0 5.05279 -4.3266 -0.0446287 0.0 6.44851 0.0 -6.11652 6.8876495 -1.06954 0.0 -20.179451 0.0 2.3354 -2.8377 7.93819 0.0 6.29459 0.0 8.72152 9.51612 -5.90613 0.0 -28.0814 0.0 
  2.5967001342773437 5.7291802978515625 9.80989013671875 -150.311 82.7859 -565.367 3.03359 -7.22946 -2.73059 -1.00199 3.81913 -2.89665 -4.90506 26.3569 2.61635 18.7995 -52.0967 10.6802 -88.60571 -17.6582 -4.31338 -7.88405 7.45305 -31.8752 0.0 21.4982 0.0 30.8128 -7.53603 19.916 0.0 0.0 0.0 0.0 0.0 0.0 96.79856 -12.0254 1.50221 7.15874 3.24908 37.8308 0.0 21.7885 0.0 -19.7294 -3.41397 -27.0601 0.0 0.0 0.0 0.0 0.0 0.0 5.0488 -4.3459 -0.0880393 0.0 6.45553 0.0 -6.12626 6.88391 -1.02916 0.0 -20.17522 0.0 2.33474 -2.85781 7.95522 0.0 6.30619 0.0 8.74332 9.49751 -5.91335 0.0 -28.0744 0.0 
  2.5962200927734376 5.729219970703125 9.809860229492188 -150.322 82.7856 -565.349 3.03654 -7.20779 -2.73003 -1.01833 3.78991 -2.89735 -4.91 26.3259 2.62908 18.8071 -52.0954 10.6788 -88.6088 -17.6334 -4.27916 -7.80821 7.3983 -31.7851 0.0 21.5049 0.0 30.8463 -7.51748 20.0001 0.0 0.0 0.0 0.0 0.0 0.0 96.81948 -12.0551 1.50208 7.11954 3.25291 37.7663 0.0 21.7526 0.0 -19.7374 -3.45859 -27.1049 0.0 0.0 0.0 0.0 0.0 0.0 5.04948 -4.35353 -0.0964164 0.0 6.46468 0.0 -6.13926 6.8821297 -1.02824 0.0 -20.18375 0.0 2.33698 -2.86762 7.9659 0.0 6.32827 0.0 8.78072 9.48763 -5.92231 0.0 -28.0903 0.0 
  2.595880126953125 5.729290161132813 9.809990234375 -150.275 82.7926 -565.388 2.97576 -7.24576 -2.7804 -0.910198 3.90263 -2.93342 -4.98721 26.2099 2.71086 18.7723 -52.0975 10.6388 -88.67402 -17.6725 -4.34062 -7.77745 7.27683 -31.6018 0.0 21.6181 0.0 30.8255 -7.54387 19.8103 0.0 0.0 0.0 0.0 0.0 0.0 96.77777 -11.9727 1.55922 7.11155 3.19751 37.7138 0.0 21.7845 0.0 -19.8002 -3.45702 -27.2063 0.0 0.0 0.0 0.0 0.0 0.0 5.05257 -4.35002 -0.0968737 0.0 6.46986 0.0 -6.12331 6.8875904 -1.02799 0.0 -20.18841 0.0 2.34019 -2.85191 7.95288 0.0 6.30932 0.0 8.72493 9.511351 -5.92895 0.0 -28.090801 0.0 
